<?xml version="1.0" encoding="utf-8"?>
<!-- Generator: Adobe Illustrator 21.1.0, SVG Export Plug-In . SVG Version: 6.00 Build 0)  -->
<svg version="1.1" id="Layer_1" xmlns="http://www.w3.org/2000/svg" xmlns:xlink="http://www.w3.org/1999/xlink" x="0px" y="0px"
	 viewBox="0 0 163 44" style="enable-background:new 0 0 163 44;" xml:space="preserve">
<style type="text/css">
	.st0{fill:#439DD6;}
	.st1{fill:#509587;}
	.st2{fill:#9B5EA5;}
</style>
<title>Page 1 Copy 2</title>
<desc>Created with Sketch.</desc>
<g id="Desktop-HD" transform="translate(-56.000000, -15.000000)">
	<g id="Page-1-Copy-2" transform="translate(56.000000, 15.057648)">
		<path id="Fill-1" class="st0" d="M20.8,16.7c-0.8,1-1.8,1.8-3,2.4S15.4,20,14,20c-1.2,0-2.3-0.2-3.4-0.7c-1.1-0.4-2-1-2.8-1.8
			S6.4,15.9,6,14.8c-0.5-1-0.7-2.1-0.7-3.3S5.5,9.2,6,8.2s1.1-1.9,1.8-2.7c0.8-0.8,1.7-1.4,2.8-1.8s2.2-0.6,3.4-0.6
			c1.4,0,2.7,0.3,3.8,0.9c1.2,0.6,2.1,1.3,2.9,2.3l-2.2,2.2c-0.5-0.7-1.1-1.3-1.9-1.7C15.9,6.3,15,6,14.1,6c-0.8,0-1.5,0.1-2.1,0.4
			c-0.7,0.3-1.3,0.7-1.8,1.2C9.7,8.2,9.3,8.7,9,9.4s-0.4,1.4-0.4,2.1c0,0.7,0.1,1.4,0.4,2.1c0.3,0.7,0.7,1.2,1.2,1.7
			s1.1,0.9,1.8,1.2s1.4,0.4,2.1,0.4c1,0,1.9-0.2,2.7-0.7c0.8-0.5,1.4-1.1,1.9-1.8L20.8,16.7z"/>
		<polygon id="Fill-3" class="st0" points="35.2,19.6 32,19.6 32,12.4 25.6,12.4 25.6,19.6 22.5,19.6 22.5,3.4 25.6,3.4 25.6,9.8 
			32,9.8 32,3.4 35.2,3.4 		"/>
		<polygon id="Fill-5" class="st0" points="38.2,19.6 41.4,19.6 41.4,3.4 38.2,3.4 		"/>
		<path id="Fill-7" class="st0" d="M59.2,16.7c-0.8,1-1.8,1.8-3,2.4S53.8,20,52.4,20c-1.2,0-2.3-0.2-3.4-0.7c-1.1-0.4-2-1-2.8-1.8
			s-1.4-1.6-1.8-2.7c-0.5-1-0.7-2.1-0.7-3.3s0.2-2.3,0.7-3.3s1.1-1.9,1.8-2.7C47,4.7,47.9,4.1,49,3.7s2.2-0.6,3.4-0.6
			c1.4,0,2.7,0.3,3.8,0.9c1.2,0.6,2.1,1.3,2.9,2.3L57,8.4c-0.5-0.7-1.1-1.3-1.9-1.7C54.3,6.3,53.4,6,52.5,6c-0.8,0-1.5,0.1-2.1,0.4
			c-0.7,0.3-1.3,0.7-1.8,1.2s-0.9,1.1-1.2,1.7C47.1,10,47,10.7,47,11.4s0.1,1.4,0.4,2.1c0.3,0.7,0.7,1.2,1.2,1.7s1.1,0.9,1.8,1.2
			s1.4,0.4,2.1,0.4c1,0,1.9-0.2,2.7-0.7c0.8-0.5,1.4-1.1,1.9-1.8L59.2,16.7z"/>
		<path id="Fill-8" class="st0" d="M71.1,13.7l-2.7-5.8l-2.7,5.8H71.1z M77.2,19.6h-3.4l-1.5-3.2h-7.9l-1.5,3.2h-3.4l7.7-16.2h2.5
			L77.2,19.6z"/>
		<path id="Fill-9" class="st0" d="M89.7,15.3c0,0.6-0.1,1.2-0.4,1.7s-0.6,1-1.1,1.5c-0.5,0.4-1,0.8-1.7,1c-0.6,0.3-1.4,0.4-2.2,0.4
			c-0.7,0-1.3,0-1.9-0.1s-1.1-0.2-1.6-0.4c-0.5-0.2-1-0.4-1.4-0.7c-0.5-0.3-0.9-0.6-1.4-1l2.2-2.3c0.6,0.5,1.3,0.9,1.9,1.1
			c0.6,0.2,1.3,0.3,2,0.3c0.3,0,0.6,0,0.8-0.1c0.3-0.1,0.5-0.2,0.7-0.4c0.2-0.1,0.4-0.3,0.5-0.5s0.2-0.4,0.2-0.7s0-0.5-0.1-0.7
			s-0.3-0.4-0.5-0.6c-0.2-0.2-0.6-0.4-1-0.6c-0.4-0.2-1-0.4-1.7-0.7c-0.6-0.2-1.2-0.5-1.7-0.7c-0.5-0.3-1-0.6-1.4-1s-0.7-0.9-1-1.4
			s-0.4-1.1-0.4-1.9c0-0.7,0.1-1.3,0.4-1.9s0.7-1.1,1.1-1.5c0.5-0.4,1-0.7,1.7-1C82.4,3.2,83.1,3,83.9,3c1.2,0,2.3,0.2,3.1,0.5
			c0.9,0.3,1.6,0.8,2.3,1.4l-2.2,2.2c-0.4-0.4-0.9-0.7-1.4-0.9C85.2,6,84.6,5.9,84,5.9c-0.3,0-0.6,0-0.9,0.1s-0.5,0.2-0.7,0.4
			C82.2,6.6,82.1,6.8,82,7s-0.2,0.4-0.2,0.7c0,0.3,0.1,0.5,0.2,0.7s0.3,0.4,0.5,0.6c0.3,0.2,0.6,0.4,1,0.6c0.4,0.2,1,0.4,1.6,0.6
			c0.8,0.3,1.5,0.6,2.1,0.9c0.6,0.3,1.1,0.7,1.4,1.1c0.4,0.4,0.6,0.9,0.8,1.4C89.6,14.1,89.7,14.7,89.7,15.3"/>
		<polygon id="Fill-10" class="st1" points="109,19.6 98.3,19.6 98.3,3.4 109,3.4 109,6 101.4,6 101.4,9.9 108.9,9.9 108.9,12.4 
			101.4,12.4 101.4,16.9 109,16.9 		"/>
		<polygon id="Fill-11" class="st1" points="125,19.6 121.9,19.6 114.6,8.2 114.6,19.6 111.5,19.6 111.5,3.4 115,3.4 121.9,14 
			121.9,3.4 125,3.4 		"/>
		<polygon id="Fill-12" class="st2" points="17.2,26.7 12.7,26.7 12.7,40.1 9.5,40.1 9.5,26.7 5,26.7 5,23.9 17.2,23.9 		"/>
		<polygon id="Fill-13" class="st2" points="29.9,40.1 19.2,40.1 19.2,23.9 29.9,23.9 29.9,26.5 22.3,26.5 22.3,30.3 29.8,30.3 
			29.8,32.9 22.3,32.9 22.3,37.3 29.9,37.3 		"/>
		<path id="Fill-14" class="st2" d="M47.2,37.2c-0.8,1-1.8,1.8-3,2.4c-1.2,0.6-2.4,0.9-3.8,0.9c-1.2,0-2.3-0.2-3.4-0.7
			c-1.1-0.4-2-1-2.8-1.8s-1.4-1.6-1.8-2.7c-0.5-1-0.7-2.1-0.7-3.3s0.2-2.3,0.7-3.3s1.1-1.9,1.8-2.7c0.8-0.8,1.7-1.4,2.8-1.8
			s2.2-0.6,3.4-0.6c1.4,0,2.7,0.3,3.8,0.9c1.2,0.6,2.1,1.3,2.9,2.3L44.9,29c-0.5-0.7-1.1-1.3-1.9-1.7s-1.7-0.7-2.6-0.7
			c-0.8,0-1.5,0.1-2.1,0.4c-0.7,0.3-1.3,0.7-1.8,1.2s-0.9,1.1-1.2,1.7c-0.3,0.7-0.4,1.4-0.4,2.1s0.1,1.4,0.4,2.1
			c0.3,0.7,0.7,1.2,1.2,1.7s1.1,0.9,1.8,1.2s1.4,0.4,2.1,0.4c1,0,1.9-0.2,2.7-0.7s1.4-1.1,1.9-1.8L47.2,37.2z"/>
		<polygon id="Fill-15" class="st2" points="62.3,40.1 59.2,40.1 51.9,28.7 51.9,40.1 48.8,40.1 48.8,23.8 52.3,23.8 59.2,34.4 
			59.2,23.8 62.3,23.8 		"/>
		<path id="Fill-16" class="st2" d="M78.8,32c0-0.7-0.1-1.4-0.4-2.1s-0.7-1.2-1.2-1.7s-1.1-0.9-1.7-1.2c-0.7-0.3-1.4-0.4-2.1-0.4
			c-0.8,0-1.5,0.1-2.1,0.4c-0.7,0.3-1.2,0.7-1.7,1.2s-0.9,1.1-1.2,1.7C68.1,30.6,68,31.3,68,32s0.1,1.4,0.4,2.1
			c0.3,0.7,0.7,1.2,1.2,1.7s1.1,0.9,1.7,1.2c0.7,0.3,1.4,0.4,2.1,0.4s1.5-0.1,2.1-0.4c0.7-0.3,1.2-0.7,1.7-1.2s0.9-1.1,1.2-1.7
			C78.6,33.4,78.8,32.7,78.8,32 M81.9,32c0,1.2-0.2,2.3-0.7,3.3s-1.1,1.9-1.9,2.7s-1.7,1.4-2.7,1.8c-1,0.4-2.1,0.7-3.3,0.7
			c-1.2,0-2.3-0.2-3.3-0.7c-1-0.4-2-1-2.7-1.8c-0.8-0.8-1.4-1.6-1.9-2.7c-0.5-1-0.7-2.1-0.7-3.3s0.2-2.3,0.7-3.3s1.1-1.9,1.9-2.7
			c0.8-0.8,1.7-1.4,2.7-1.8s2.2-0.6,3.3-0.6c1.2,0,2.3,0.2,3.3,0.6s2,1,2.7,1.8c0.8,0.8,1.4,1.7,1.9,2.7
			C81.7,29.7,81.9,30.8,81.9,32"/>
		<polygon id="Fill-17" class="st2" points="95.4,40.1 84.4,40.1 84.4,23.9 87.6,23.9 87.6,37 95.4,37 		"/>
		<path id="Fill-18" class="st2" d="M109.6,32c0-0.7-0.1-1.4-0.4-2.1s-0.7-1.2-1.2-1.7s-1.1-0.9-1.7-1.2c-0.7-0.3-1.4-0.4-2.1-0.4
			c-0.8,0-1.5,0.1-2.1,0.4c-0.7,0.3-1.2,0.7-1.7,1.2s-0.9,1.1-1.2,1.7c-0.3,0.7-0.4,1.4-0.4,2.1s0.1,1.4,0.4,2.1
			c0.3,0.7,0.7,1.2,1.2,1.7s1.1,0.9,1.7,1.2c0.7,0.3,1.4,0.4,2.1,0.4s1.5-0.1,2.1-0.4c0.7-0.3,1.2-0.7,1.7-1.2s0.9-1.1,1.2-1.7
			C109.4,33.4,109.6,32.7,109.6,32 M112.7,32c0,1.2-0.2,2.3-0.7,3.3s-1.1,1.9-1.9,2.7s-1.7,1.4-2.7,1.8c-1,0.4-2.1,0.7-3.3,0.7
			c-1.2,0-2.3-0.2-3.3-0.7c-1-0.4-2-1-2.7-1.8c-0.8-0.8-1.4-1.6-1.9-2.7c-0.5-1-0.7-2.1-0.7-3.3s0.2-2.3,0.7-3.3s1.1-1.9,1.9-2.7
			c0.8-0.8,1.7-1.4,2.7-1.8s2.2-0.6,3.3-0.6c1.2,0,2.3,0.2,3.3,0.6s2,1,2.7,1.8c0.8,0.8,1.4,1.7,1.9,2.7S112.7,30.8,112.7,32"/>
		<path id="Fill-19" class="st2" d="M130.1,37.1c-0.5,0.6-1,1.1-1.5,1.5s-1.1,0.8-1.7,1c-0.6,0.3-1.2,0.5-1.8,0.6
			c-0.6,0.1-1.2,0.2-1.8,0.2c-1.2,0-2.3-0.2-3.4-0.6c-1.1-0.4-2-1-2.8-1.8s-1.4-1.7-1.9-2.7s-0.7-2.1-0.7-3.3s0.2-2.3,0.7-3.3
			s1.1-1.9,1.9-2.7c0.8-0.8,1.7-1.4,2.8-1.8c1.1-0.4,2.2-0.7,3.4-0.7c1.4,0,2.7,0.3,3.8,0.9s2.1,1.3,2.9,2.3l-2.1,2.2
			c-0.6-0.8-1.3-1.4-2-1.8c-0.8-0.4-1.6-0.5-2.5-0.5c-0.8,0-1.5,0.1-2.2,0.4s-1.3,0.7-1.8,1.2s-0.9,1.1-1.2,1.7
			c-0.3,0.7-0.4,1.4-0.4,2.1c0,0.8,0.1,1.5,0.4,2.1c0.3,0.7,0.7,1.2,1.2,1.7s1.1,0.9,1.8,1.2c0.7,0.3,1.4,0.4,2.2,0.4
			c0.7,0,1.4-0.1,2.1-0.4c0.6-0.3,1.2-0.6,1.7-1.1v-1.6h-3.3v-2.7h6.4v5.5C130.3,37.1,130.1,37.1,130.1,37.1z"/>
		<path id="Fill-20" class="st2" d="M132.5,40.1h3.1V23.9h-3.1V40.1z M137,18.5l-2.9,3.9h-2.2l1.8-3.9H137z"/>
		<path id="Fill-21" class="st2" d="M148.9,34.2l-2.7-5.8l-2.7,5.8H148.9z M155.1,40.1h-3.4l-1.5-3.2h-7.9l-1.5,3.2h-3.4l7.7-16.2
			h2.5L155.1,40.1z"/>
	</g>
</g>
</svg>
