<?xml version="1.0" encoding="UTF-8"?>
<svg width="28px" height="28px" viewBox="0 0 28 28" version="1.1" xmlns="http://www.w3.org/2000/svg" xmlns:xlink="http://www.w3.org/1999/xlink">
    <!-- Generator: Sketch 53.2 (72643) - https://sketchapp.com -->
    <title>listen</title>
    <g stroke="none" stroke-width="1" fill="none" fill-rule="evenodd">
        <g id="Detalle" transform="translate(-896.000000, -158.000000)" fill="#5b0099" fill-rule="nonzero">
            <path d="M896.012752,167.378043 L896.012752,176.658175 L902.199506,176.658175 L909.932949,184.391618 L909.932949,159.6446 L902.199506,167.378043 L896.012752,167.378043 Z M916.893048,172.018109 C916.893048,169.28047 915.315426,166.929504 913.026327,165.784954 L913.026327,178.235797 C915.315426,177.106715 916.893048,174.755748 916.893048,172.018109 Z M913.026327,158.45365 L913.026327,161.639828 C917.496257,162.969981 920.75977,167.115106 920.75977,172.018109 C920.75977,176.921112 917.496257,181.066237 913.026327,182.39639 L913.026327,185.582568 C919.228548,184.175081 923.853147,178.637936 923.853147,172.018109 C923.853147,165.398282 919.228548,159.861137 913.026327,158.45365 Z" id="listen"></path>
        </g>
    </g>
</svg>